<svg width="173" height="73" viewBox="0 0 173 73" fill="none" xmlns="http://www.w3.org/2000/svg">
<path d="M2.86611 48.0904V22.4677H11.8411C14.9501 22.4677 17.3082 23.066 18.9155 24.2627C20.5228 25.4476 21.3264 27.1898 21.3264 29.4893C21.3264 30.7446 21.0038 31.8533 20.3585 32.8153C19.7132 33.7656 18.8157 34.4637 17.666 34.9095C18.98 35.238 20.0124 35.9008 20.7633 36.8981C21.5258 37.8953 21.9071 39.1154 21.9071 40.5584C21.9071 43.0222 21.1211 44.8875 19.549 46.1546C17.9769 47.4217 15.7361 48.0669 12.8266 48.0904H2.86611ZM8.1455 36.9333V43.8493H12.6682C13.9118 43.8493 14.8797 43.556 15.5719 42.9694C16.2758 42.371 16.6277 41.5498 16.6277 40.5056C16.6277 38.1592 15.4135 36.9685 12.9849 36.9333H8.1455ZM8.1455 33.2025H12.0523C14.7154 33.1556 16.047 32.0938 16.047 30.0172C16.047 28.8558 15.7068 28.0228 15.0263 27.5183C14.3576 27.0021 13.2958 26.744 11.8411 26.744H8.1455V33.2025ZM30.9173 48.0904H25.8139V21.0599H30.9173V48.0904ZM46.1572 48.0904C45.9225 47.6328 45.7524 47.0638 45.6468 46.3834C44.415 47.756 42.8135 48.4423 40.8426 48.4423C38.9772 48.4423 37.4286 47.9027 36.1967 46.8233C34.9766 45.744 34.3665 44.3831 34.3665 42.7406C34.3665 40.7227 35.1115 39.1741 36.6014 38.0947C38.1031 37.0154 40.2677 36.4698 43.0951 36.4581H45.4356V35.367C45.4356 34.4871 45.2069 33.7832 44.7493 33.2553C44.3035 32.7273 43.5937 32.4634 42.62 32.4634C41.7635 32.4634 41.0889 32.6687 40.5962 33.0793C40.1152 33.4899 39.8747 34.0531 39.8747 34.7687H34.7889C34.7889 33.6659 35.1291 32.6452 35.8095 31.7067C36.49 30.7681 37.452 30.0348 38.6956 29.5069C39.9392 28.9672 41.3353 28.6974 42.8839 28.6974C45.2303 28.6974 47.0898 29.2899 48.4625 30.4748C49.8469 31.648 50.539 33.3022 50.539 35.4374V43.6909C50.5508 45.4976 50.803 46.8644 51.2958 47.7912V48.0904H46.1572ZM41.9512 44.5532C42.7021 44.5532 43.3943 44.3889 44.0278 44.0604C44.6613 43.7202 45.1306 43.2685 45.4356 42.7054V39.4322H43.5351C40.9892 39.4322 39.6342 40.3121 39.4699 42.0719L39.4523 42.371C39.4523 43.0046 39.6752 43.5266 40.121 43.9373C40.5669 44.3479 41.1769 44.5532 41.9512 44.5532ZM59.1269 29.0494L59.2852 31.2491C60.6462 29.548 62.4705 28.6974 64.7582 28.6974C66.7761 28.6974 68.2778 29.2899 69.2633 30.4748C70.2488 31.6597 70.7533 33.4313 70.7767 35.7894V48.0904H65.6909V35.9126C65.6909 34.8332 65.4563 34.0531 64.987 33.572C64.5177 33.0793 63.7375 32.8329 62.6465 32.8329C61.2152 32.8329 60.1417 33.443 59.426 34.6631V48.0904H54.3402V29.0494H59.1269ZM81.5643 40.4529L79.7341 42.283V48.0904H74.6483V21.0599H79.7341V36.0358L80.7196 34.7687L85.5942 29.0494H91.7007L84.8199 36.986L92.2991 48.0904H86.4565L81.5643 40.4529Z" fill="#9B00FB"/>
<path d="M105.498 43.0398C105.498 42.1599 105.163 41.4794 104.494 40.9984C103.837 40.5056 102.682 40.0833 101.028 39.7313C99.3852 39.3794 98.0771 38.957 97.1033 38.4643C96.1413 37.9715 95.4256 37.3849 94.9564 36.7045C94.4988 36.024 94.27 35.2145 94.27 34.276C94.27 32.7156 94.927 31.3958 96.241 30.3164C97.5667 29.2371 99.2561 28.6974 101.309 28.6974C103.468 28.6974 105.216 29.2547 106.553 30.3692C107.903 31.4837 108.577 32.9092 108.577 34.6455H105.304C105.304 33.7539 104.923 32.9854 104.16 32.3402C103.409 31.6949 102.459 31.3723 101.309 31.3723C100.124 31.3723 99.1975 31.6304 98.5288 32.1466C97.86 32.6628 97.5257 33.3374 97.5257 34.1704C97.5257 34.9564 97.8366 35.5489 98.4584 35.9478C99.0802 36.3467 100.201 36.7279 101.82 37.0916C103.45 37.4553 104.77 37.8894 105.779 38.3939C106.788 38.8984 107.533 39.5084 108.014 40.2241C108.507 40.928 108.753 41.7903 108.753 42.811C108.753 44.5121 108.073 45.8789 106.712 46.9113C105.351 47.932 103.585 48.4423 101.415 48.4423C99.8897 48.4423 98.5405 48.1725 97.3673 47.6328C96.1941 47.0932 95.2731 46.3423 94.6044 45.3803C93.9474 44.4065 93.6189 43.3565 93.6189 42.2302H96.8745C96.9332 43.3213 97.3673 44.1895 98.1768 44.8348C98.998 45.4683 100.077 45.785 101.415 45.785C102.647 45.785 103.632 45.5387 104.371 45.0459C105.122 44.5415 105.498 43.8727 105.498 43.0398ZM116.531 48.0904H113.276V21.0599H116.531V48.0904ZM133.514 48.0904C133.326 47.715 133.173 47.0462 133.056 46.0842C131.543 47.6563 129.736 48.4423 127.636 48.4423C125.759 48.4423 124.216 47.9144 123.008 46.8585C121.811 45.7909 121.213 44.4417 121.213 42.811C121.213 40.8283 121.963 39.2914 123.465 38.2003C124.979 37.0975 127.102 36.5461 129.836 36.5461H133.003V35.0503C133.003 33.9123 132.663 33.0089 131.983 32.3402C131.302 31.6597 130.299 31.3195 128.973 31.3195C127.812 31.3195 126.838 31.6128 126.052 32.1994C125.266 32.786 124.873 33.4958 124.873 34.3288H121.6C121.6 33.3785 121.934 32.4634 122.603 31.5835C123.283 30.6918 124.198 29.9879 125.348 29.4717C126.51 28.9555 127.782 28.6974 129.167 28.6974C131.361 28.6974 133.079 29.2488 134.323 30.3516C135.567 31.4427 136.212 32.9502 136.259 34.8743V43.6381C136.259 45.3862 136.482 46.7764 136.928 47.8088V48.0904H133.514ZM128.111 45.6091C129.132 45.6091 130.1 45.3451 131.015 44.8172C131.93 44.2892 132.593 43.6029 133.003 42.7582V38.8514H130.451C126.463 38.8514 124.468 40.0188 124.468 42.3534C124.468 43.3741 124.808 44.1719 125.489 44.7468C126.169 45.3216 127.043 45.6091 128.111 45.6091ZM145.779 24.4387V29.0494H149.334V31.5659H145.779V43.3741C145.779 44.1367 145.938 44.7116 146.254 45.0987C146.571 45.4741 147.111 45.6619 147.874 45.6619C148.249 45.6619 148.765 45.5915 149.422 45.4507V48.0904C148.566 48.325 147.733 48.4423 146.923 48.4423C145.468 48.4423 144.372 48.0024 143.632 47.1225C142.893 46.2426 142.524 44.9931 142.524 43.3741V31.5659H139.057V29.0494H142.524V24.4387H145.779ZM161.054 48.4423C158.473 48.4423 156.373 47.5976 154.754 45.9082C153.135 44.2071 152.326 41.9369 152.326 39.0978V38.4995C152.326 36.6106 152.684 34.9271 153.399 33.4489C154.127 31.9589 155.136 30.7974 156.426 29.9645C157.728 29.1198 159.136 28.6974 160.65 28.6974C163.125 28.6974 165.049 29.5128 166.422 31.1435C167.794 32.7743 168.481 35.1089 168.481 38.1475V39.5026H155.581C155.628 41.3797 156.174 42.899 157.218 44.0604C158.274 45.2102 159.611 45.785 161.23 45.785C162.38 45.785 163.354 45.5504 164.152 45.0811C164.949 44.6118 165.647 43.99 166.246 43.2157L168.234 44.7644C166.639 47.2163 164.245 48.4423 161.054 48.4423ZM160.65 31.3723C159.336 31.3723 158.233 31.8533 157.341 32.8153C156.45 33.7656 155.898 35.1031 155.687 36.8277H165.225V36.5813C165.131 34.9271 164.685 33.6483 163.888 32.7449C163.09 31.8298 162.011 31.3723 160.65 31.3723Z" fill="black"/>
</svg>
